<svg width="161" height="47" viewBox="0 0 161 47" fill="none" xmlns="http://www.w3.org/2000/svg">
<path d="M13.5767 11.3721L6.46021 23.1815L13.5767 19.947V11.3721Z" fill="white"/>
<path d="M13.5767 19.9469L6.46021 23.1814L13.5767 27.3891V19.9469Z" fill="white"/>
<path d="M20.6943 23.1815L13.5765 11.3721V19.947L20.6943 23.1815Z" fill="white"/>
<path d="M13.5765 27.3891L20.6943 23.1814L13.5765 19.9469V27.3891Z" fill="white"/>
<path d="M6.46021 24.5317L13.5767 34.5611V28.7368L6.46021 24.5317Z" fill="white"/>
<path d="M13.5765 28.7368V34.5611L20.6983 24.5317L13.5765 28.7368Z" fill="white"/>
<path d="M29.082 27.5276V18.4134H37.4747V20.097H30.7656V22.1223H36.1582V23.8186H30.7656V25.844H37.4747V27.5276H29.082ZM42.0144 27.5276V20.097H38.2927V18.4134H47.407V20.097H43.698V27.5276H42.0144ZM48.3664 27.5276V18.4134H50.0373V22.1223H56.0122V18.4134H57.6831V27.5276H56.0122V23.8186H50.0373V27.5276H48.3664ZM64.7118 27.5276C64.4334 27.5276 64.1717 27.4559 63.927 27.3124C63.6823 27.1605 63.4713 26.9622 63.2941 26.7174C63.1253 26.4643 63.0114 26.1816 62.9523 25.8693H70.1804C70.2226 25.8693 70.2563 25.8566 70.2817 25.8313C70.3154 25.7976 70.3323 25.7596 70.3323 25.7174V24.0338C70.3323 23.9916 70.3154 23.9578 70.2817 23.9325C70.2563 23.8988 70.2226 23.8819 70.1804 23.8819H64.7118C64.3827 23.8819 64.0874 23.8017 63.8257 23.6414C63.5641 23.481 63.3531 23.2701 63.1928 23.0084C63.0325 22.7384 62.9523 22.443 62.9523 22.1223V20.1602C62.9523 19.8311 63.0325 19.5358 63.1928 19.2741C63.3531 19.0125 63.5641 18.8058 63.8257 18.6539C64.0874 18.4935 64.3827 18.4134 64.7118 18.4134H70.2437C70.5644 18.4134 70.8555 18.4935 71.1171 18.6539C71.3787 18.8058 71.5897 19.0125 71.7501 19.2741C71.9104 19.5358 71.9906 19.8311 71.9906 20.1602V25.7807C71.9906 26.1014 71.9104 26.3925 71.7501 26.6541C71.5897 26.9158 71.3787 27.1267 71.1171 27.2871C70.8555 27.4474 70.5644 27.5276 70.2437 27.5276H64.7118ZM64.7751 22.211H70.3323V20.2235C70.3323 20.1813 70.3154 20.1476 70.2817 20.1223C70.2563 20.0885 70.2226 20.0716 70.1804 20.0716H64.7751C64.7329 20.0716 64.695 20.0885 64.6612 20.1223C64.6359 20.1476 64.6232 20.1813 64.6232 20.2235V22.059C64.6232 22.1012 64.6359 22.1392 64.6612 22.173C64.695 22.1983 64.7329 22.211 64.7751 22.211ZM73.4479 27.5276V25.8693H75.1062V27.5276H73.4479ZM78.0628 27.5276C77.7336 27.5276 77.4383 27.4474 77.1767 27.2871C76.9151 27.1267 76.7041 26.9158 76.5437 26.6541C76.3834 26.3925 76.3032 26.1014 76.3032 25.7807V25.2364H77.9615V25.7174C77.9615 25.7596 77.9742 25.7976 77.9995 25.8313C78.0332 25.8566 78.0712 25.8693 78.1134 25.8693H83.5187C83.5609 25.8693 83.5988 25.8566 83.6326 25.8313C83.6663 25.7976 83.6832 25.7596 83.6832 25.7174V23.8946C83.6832 23.8524 83.6663 23.8186 83.6326 23.7933C83.5988 23.7595 83.5609 23.7426 83.5187 23.7426H77.8729V22.0844H83.1642C83.2064 22.0844 83.2402 22.0717 83.2655 22.0464C83.2992 22.0126 83.3161 21.9747 83.3161 21.9325V20.2235C83.3161 20.1813 83.2992 20.1476 83.2655 20.1223C83.2402 20.0885 83.2064 20.0716 83.1642 20.0716H78.1134C78.0712 20.0716 78.0332 20.0885 77.9995 20.1223C77.9742 20.1476 77.9615 20.1813 77.9615 20.2235V20.8185H76.3032V20.1602C76.3032 19.8311 76.3834 19.5358 76.5437 19.2741C76.7041 19.0125 76.9151 18.8058 77.1767 18.6539C77.4383 18.4935 77.7336 18.4134 78.0628 18.4134H83.2275C83.5566 18.4134 83.852 18.4935 84.1136 18.6539C84.3752 18.8058 84.582 19.0125 84.7339 19.2741C84.8942 19.5358 84.9744 19.8311 84.9744 20.1602V22.0084C84.9744 22.1097 84.966 22.2152 84.9491 22.3249C84.9322 22.4261 84.9069 22.5232 84.8731 22.616C85.025 22.7764 85.139 22.9663 85.2149 23.1857C85.2993 23.3966 85.3415 23.6118 85.3415 23.8313V25.7807C85.3415 26.1014 85.2613 26.3925 85.101 26.6541C84.9406 26.9158 84.7297 27.1267 84.4681 27.2871C84.2064 27.4474 83.9153 27.5276 83.5946 27.5276H78.0628ZM89.0147 27.5276V20.8058L88.2931 21.6919H86.1032L88.8501 18.4134H90.6856V27.5276H89.0147Z" fill="white"/>
<path opacity="0.7" d="M101.951 18.0989V18.4157C101.951 18.5117 101.899 18.5597 101.793 18.5597H101.75C101.289 18.5597 100.934 18.6989 100.684 18.9773C100.435 19.2461 100.31 19.6349 100.31 20.1437V26.5229C100.31 27.0317 100.435 27.4205 100.684 27.6893C100.934 27.9677 101.289 28.1069 101.75 28.1069H101.793C101.899 28.1069 101.951 28.1549 101.951 28.2509V28.5677C101.951 28.6541 101.899 28.6973 101.793 28.6973H101.75C101.107 28.6973 100.593 28.5005 100.209 28.1069C99.8346 27.7229 99.6474 27.1805 99.6474 26.4797V20.1869C99.6474 19.4861 99.8346 18.9437 100.209 18.5597C100.593 18.1661 101.107 17.9693 101.75 17.9693H101.807C101.903 17.9693 101.951 18.0125 101.951 18.0989ZM106.879 28.6397H106.548C106.442 28.6397 106.39 28.5821 106.39 28.4669V27.2285H105.929C105.314 27.2285 104.825 27.0461 104.46 26.6813C104.095 26.3069 103.913 25.8077 103.913 25.1837V24.7373C103.913 24.6317 103.966 24.5789 104.071 24.5789H104.489C104.585 24.5789 104.633 24.6317 104.633 24.7373V25.1405C104.633 26.1005 105.098 26.5805 106.03 26.5805H107.066C107.998 26.5805 108.463 26.0957 108.463 25.1261V24.2765C108.463 23.7677 108.334 23.4125 108.074 23.2109C107.825 23.0093 107.446 22.9037 106.937 22.8941L106.03 22.8797C105.358 22.8605 104.834 22.7069 104.46 22.4189C104.095 22.1309 103.913 21.6221 103.913 20.8925V19.9853C103.913 19.3613 104.095 18.8669 104.46 18.5021C104.825 18.1277 105.314 17.9405 105.929 17.9405H106.39V16.7021C106.39 16.5869 106.442 16.5293 106.548 16.5293H106.879C106.985 16.5293 107.038 16.5869 107.038 16.7021V17.9405H107.167C107.772 17.9405 108.252 18.1277 108.607 18.5021C108.972 18.8669 109.154 19.3613 109.154 19.9853V20.3885C109.154 20.5037 109.106 20.5613 109.01 20.5613H108.593C108.487 20.5613 108.434 20.5037 108.434 20.3885V20.0429C108.434 19.0829 107.969 18.6029 107.038 18.6029H106.03C105.098 18.6029 104.633 19.0925 104.633 20.0717V20.9069C104.633 21.3869 104.753 21.7277 104.993 21.9293C105.242 22.1213 105.622 22.2221 106.13 22.2317H107.167C107.791 22.2509 108.281 22.4093 108.636 22.7069C109.001 23.0045 109.183 23.5133 109.183 24.2333V25.1837C109.183 25.8173 109.001 26.3165 108.636 26.6813C108.271 27.0461 107.782 27.2285 107.167 27.2285H107.038V28.4669C107.038 28.5821 106.985 28.6397 106.879 28.6397ZM111.039 27.0701V25.8029C111.039 25.1309 111.327 24.5789 111.903 24.1469L114.74 21.9869C115.23 21.6125 115.475 21.1325 115.475 20.5469V19.9853C115.475 19.0637 115.019 18.6029 114.107 18.6029H113.07C112.167 18.6029 111.716 19.0637 111.716 19.9853V20.6333C111.716 20.7485 111.663 20.8061 111.558 20.8061H111.14C111.035 20.8061 110.982 20.7485 110.982 20.6333V19.9709C110.982 19.3469 111.164 18.8573 111.529 18.5021C111.894 18.1469 112.388 17.9693 113.012 17.9693H114.179C114.803 17.9693 115.292 18.1469 115.647 18.5021C116.012 18.8477 116.195 19.3373 116.195 19.9709V20.5757C116.195 21.3245 115.892 21.9293 115.287 22.3901L112.422 24.5933C112.019 24.9005 111.817 25.2797 111.817 25.7309V26.5661H116.079C116.185 26.5661 116.238 26.6189 116.238 26.7245V27.0701C116.238 27.1757 116.185 27.2285 116.079 27.2285H111.212C111.097 27.2285 111.039 27.1757 111.039 27.0701ZM119.946 22.8653H122.538V20.0429C122.538 19.5821 122.418 19.2317 122.178 18.9917C121.948 18.7421 121.612 18.6173 121.17 18.6173H119.946C119.505 18.6173 119.169 18.7421 118.938 18.9917C118.708 19.2317 118.593 19.5821 118.593 20.0429V21.4397C118.593 21.9005 118.708 22.2557 118.938 22.5053C119.169 22.7453 119.505 22.8653 119.946 22.8653ZM121.228 27.2285H118.478C118.362 27.2285 118.305 27.1757 118.305 27.0701V26.7245C118.305 26.6285 118.362 26.5805 118.478 26.5805H121.17C121.612 26.5805 121.948 26.4605 122.178 26.2205C122.409 25.9709 122.524 25.6157 122.524 25.1549V23.5133H119.889C119.265 23.5133 118.77 23.3309 118.406 22.9661C118.041 22.6013 117.858 22.1021 117.858 21.4685V20.0141C117.858 19.3805 118.041 18.8813 118.406 18.5165C118.77 18.1517 119.265 17.9693 119.889 17.9693H121.228C121.852 17.9693 122.346 18.1517 122.711 18.5165C123.076 18.8813 123.258 19.3805 123.258 20.0141V25.1837C123.258 25.8173 123.076 26.3165 122.711 26.6813C122.346 27.0461 121.852 27.2285 121.228 27.2285ZM125.981 25.3421V26.4653C125.981 26.6477 125.928 26.9213 125.823 27.2861L125.405 28.5965C125.395 28.6637 125.352 28.6973 125.275 28.6973C125.208 28.6973 125.175 28.6541 125.175 28.5677V25.3421C125.175 25.2365 125.227 25.1837 125.333 25.1837H125.837C125.933 25.1837 125.981 25.2365 125.981 25.3421ZM130.005 26.5805H131.401C132.313 26.5805 132.769 26.1197 132.769 25.1981V24.2621C132.769 23.3405 132.313 22.8797 131.401 22.8797H130.005C129.102 22.8797 128.651 23.3405 128.651 24.2621V25.1981C128.651 26.1197 129.102 26.5805 130.005 26.5805ZM130.005 22.2605H131.401C131.843 22.2605 132.179 22.1405 132.409 21.9005C132.649 21.6605 132.769 21.3149 132.769 20.8637V19.9997C132.769 19.0781 132.313 18.6173 131.401 18.6173H130.005C129.102 18.6173 128.651 19.0781 128.651 19.9997V20.8637C128.651 21.7949 129.102 22.2605 130.005 22.2605ZM131.459 27.2285H129.947C129.323 27.2285 128.829 27.0557 128.464 26.7101C128.099 26.3549 127.917 25.8653 127.917 25.2413V24.2909C127.917 23.4173 128.267 22.8413 128.968 22.5629C128.267 22.2845 127.917 21.7133 127.917 20.8493V19.9565C127.917 19.3325 128.099 18.8477 128.464 18.5021C128.829 18.1469 129.323 17.9693 129.947 17.9693H131.459C132.083 17.9693 132.573 18.1469 132.928 18.5021C133.293 18.8477 133.475 19.3325 133.475 19.9565V20.8493C133.475 21.7325 133.129 22.3037 132.438 22.5629C133.129 22.8317 133.475 23.4077 133.475 24.2909V25.2413C133.475 25.8653 133.293 26.3549 132.928 26.7101C132.573 27.0557 132.083 27.2285 131.459 27.2285ZM137.472 26.5805H138.869C139.781 26.5805 140.237 26.1197 140.237 25.1981V24.2621C140.237 23.3405 139.781 22.8797 138.869 22.8797H137.472C136.569 22.8797 136.118 23.3405 136.118 24.2621V25.1981C136.118 26.1197 136.569 26.5805 137.472 26.5805ZM137.472 22.2605H138.869C139.31 22.2605 139.646 22.1405 139.877 21.9005C140.117 21.6605 140.237 21.3149 140.237 20.8637V19.9997C140.237 19.0781 139.781 18.6173 138.869 18.6173H137.472C136.569 18.6173 136.118 19.0781 136.118 19.9997V20.8637C136.118 21.7949 136.569 22.2605 137.472 22.2605ZM138.926 27.2285H137.414C136.79 27.2285 136.296 27.0557 135.931 26.7101C135.566 26.3549 135.384 25.8653 135.384 25.2413V24.2909C135.384 23.4173 135.734 22.8413 136.435 22.5629C135.734 22.2845 135.384 21.7133 135.384 20.8493V19.9565C135.384 19.3325 135.566 18.8477 135.931 18.5021C136.296 18.1469 136.79 17.9693 137.414 17.9693H138.926C139.55 17.9693 140.04 18.1469 140.395 18.5021C140.76 18.8477 140.942 19.3325 140.942 19.9565V20.8493C140.942 21.7325 140.597 22.3037 139.905 22.5629C140.597 22.8317 140.942 23.4077 140.942 24.2909V25.2413C140.942 25.8653 140.76 26.3549 140.395 26.7101C140.04 27.0557 139.55 27.2285 138.926 27.2285ZM146.955 24.6941V18.5453L143.326 24.6941H146.955ZM147.502 27.2285H147.113C147.008 27.2285 146.955 27.1709 146.955 27.0557V25.3421H142.779C142.635 25.3421 142.563 25.2749 142.563 25.1405V24.8813C142.563 24.7949 142.597 24.6845 142.664 24.5501L146.437 18.1853C146.523 18.0413 146.638 17.9693 146.782 17.9693H147.459C147.593 17.9693 147.661 18.0413 147.661 18.1853V24.6941H148.741C148.846 24.6941 148.899 24.7421 148.899 24.8381V25.1837C148.899 25.2893 148.846 25.3421 148.741 25.3421H147.661V27.0557C147.661 27.1709 147.608 27.2285 147.502 27.2285ZM152.305 26.5805H153.529C153.971 26.5805 154.307 26.4605 154.537 26.2205C154.767 25.9709 154.883 25.6157 154.883 25.1549V23.7725C154.883 23.3213 154.767 22.9757 154.537 22.7357C154.307 22.4861 153.971 22.3613 153.529 22.3613H150.951V25.1549C150.951 25.6157 151.067 25.9709 151.297 26.2205C151.527 26.4605 151.863 26.5805 152.305 26.5805ZM153.587 27.2285H152.247C151.623 27.2285 151.129 27.0461 150.764 26.6813C150.399 26.3165 150.217 25.8173 150.217 25.1837V20.0141C150.217 19.3805 150.399 18.8813 150.764 18.5165C151.129 18.1517 151.623 17.9693 152.247 17.9693H154.983C155.089 17.9693 155.142 18.0221 155.142 18.1277V18.4733C155.142 18.5693 155.089 18.6173 154.983 18.6173H152.305C151.863 18.6173 151.527 18.7421 151.297 18.9917C151.067 19.2317 150.951 19.5821 150.951 20.0429V21.7133H153.587C154.211 21.7133 154.705 21.8957 155.07 22.2605C155.435 22.6253 155.617 23.1197 155.617 23.7437V25.1837C155.617 25.8173 155.435 26.3165 155.07 26.6813C154.705 27.0461 154.211 27.2285 153.587 27.2285ZM157.346 28.5677V28.2509C157.346 28.1549 157.404 28.1069 157.519 28.1069H157.562C158.023 28.1069 158.378 27.9677 158.628 27.6893C158.877 27.4205 159.002 27.0317 159.002 26.5229V20.1437C159.002 19.6349 158.877 19.2461 158.628 18.9773C158.378 18.6989 158.023 18.5597 157.562 18.5597H157.519C157.404 18.5597 157.346 18.5117 157.346 18.4157V18.0989C157.346 18.0125 157.404 17.9693 157.519 17.9693H157.562C158.196 17.9693 158.7 18.1661 159.074 18.5597C159.458 18.9437 159.65 19.4861 159.65 20.1869V26.4797C159.65 27.1805 159.458 27.7229 159.074 28.1069C158.7 28.5005 158.196 28.6973 157.562 28.6973H157.519C157.404 28.6973 157.346 28.6541 157.346 28.5677Z" fill="white"/>
</svg>
